<svg id="Layer_1" data-name="Layer 1" xmlns="http://www.w3.org/2000/svg" viewBox="0 0 288 59.4"><defs><style>.cls-1{fill:#8a8c8e;}.cls-2{fill:#231f20;}.cls-3{stroke:#231f20;stroke-miterlimit:10;stroke-width:0.66px;}</style></defs><title>NGinnever_Just_Will_It_Logo</title><path class="cls-1" d="M11.35,45.17c.09,2.62,1.4,4.25,3.94,4.25,2.85,0,4.75-1.36,4.75-6.15V24.82c0-1.94-1-3.21-3.3-3.21v-.9l7.37-.63a78.08,78.08,0,0,0-.27,8.46V42c0,6.15-4.16,8.46-8.73,8.46C11.94,50.5,9,49.15,9,47c0-1.31.95-1.81,2-1.81Zm13-33.38a2.91,2.91,0,0,1-2.89,2.89,2.89,2.89,0,1,1,2.89-2.89Z"/><path class="cls-1" d="M38,20.07c0,4.3,0,8.55,0,12.12,0,4.21.86,6.47,3.89,6.47,3.75,0,6-3.71,6-8.73a63.72,63.72,0,0,0-.14-6.69c-.27-1.76-1.45-1.67-2.62-1.67h-.54v-.9l7-.59c0,1-.09,5-.09,10.31,0,1.18,0,3.84.18,5.38.18,1.72.81,2.67,3.08,2.31l.14.86L48.44,40.1,47.89,36a7,7,0,0,1-6.83,4.21c-4.12,0-6.6-2-6.6-6.74,0-4,0-8.59-.18-10.36S33,21.56,31.79,21.56H31.2v-.9Z"/><path class="cls-1" d="M61.55,33.59c.9,3.35,2.31,5.2,6,5.2,2.13,0,4.39-1.27,4.39-3.35,0-2.76-2.08-3.21-7.37-5.11-2.49-.9-4-2.26-4-4.88,0-3.35,3-5.83,7.51-5.83,3.48,0,6.24,1.18,6.24,3.35a2,2,0,0,1-2.08,1.81h-.41c-.09-2.85-1.58-3.71-4.3-3.71-1.81,0-3.66,1.22-3.66,3,0,2.35,1.58,2.62,7.15,4.75,2.17.81,4.34,1.85,4.34,5.06,0,3.75-3.48,6.33-8.5,6.33-4.25,0-7.42-1.81-7.42-4.39a2.11,2.11,0,0,1,2-2.26Z"/><path class="cls-1" d="M87.1,15.82,87,20.2h7.19v1.31H86.88c0,3.84,0,10,.18,13.16s1.4,3.84,2.89,3.84a4.6,4.6,0,0,0,3.48-1.94l.72.54c-1,1.36-2.17,3.12-5.38,3.12S83.62,38.7,83.44,35c-.23-4.7,0-9.23,0-13.57H80.59v-.95a9,9,0,0,0,5.65-4.7Z"/><path class="cls-2" d="M109.26,10.84h11.35V12h-1.09c-1.22,0-1.94.54-1.94,1.54a2.38,2.38,0,0,0,.09.63l5.61,18.27,7.28-22h.86l8.05,22.07,4.66-17.91a4.18,4.18,0,0,0,.23-1.13c0-1.45-.95-1.45-2.35-1.45h-.95V10.84h9.45V12h-.86c-1.72,0-3.48.77-4.39,4L138.39,40h-.5l-8.5-22.07L122,40h-.54l-8-25.15C112.7,12.6,111.7,12,110.17,12h-.9Z"/><path class="cls-2" d="M161,20.07a64.7,64.7,0,0,0-.45,7.78c0,3.26.27,7.91.36,9,.14,1.72,1.54,1.85,2.71,1.85h.45v.9H153.54v-.9h.68c1.18,0,2.4-.14,2.62-1.85s.27-3.8.32-6.33-.14-4.7-.27-6.47c-.18-2.17-1.58-2.49-3.35-2.49v-.9Zm.32-8.28a2.91,2.91,0,0,1-2.89,2.89,2.89,2.89,0,1,1,2.89-2.89Z"/><path class="cls-2" d="M176.28,8.9c-.32,2.8-.45,10.27-.45,16s.14,10.85.23,12c.14,1.72,1.54,1.85,2.71,1.85h.91v.9H168.41v-.9h.9c1.18,0,2.4-.14,2.62-1.85s.27-6.38.32-12-.09-10.72-.27-12.48-1.58-2-3.35-2v-.9Z"/><path class="cls-2" d="M192.07,8.9c-.32,2.8-.45,10.27-.45,16s.14,10.85.23,12c.14,1.72,1.54,1.85,2.71,1.85h.91v.9H184.2v-.9h.9c1.18,0,2.4-.14,2.62-1.85s.27-6.38.32-12-.09-10.72-.27-12.48-1.58-2-3.35-2v-.9Z"/><path class="cls-2" d="M225.13,10.84V12c-2.76,0-3.35.54-3.48,2.08a92.92,92.92,0,0,0-.36,10.85c0,5.43.18,9.09.36,11.53.14,1.85.72,2.08,3.48,2.08v1.13H213.55V38.52c2.67,0,3.35-.23,3.48-2.08.18-2.44.36-6.11.36-11.53,0-5.11-.13-8.37-.36-10.85-.18-1.49-.81-2.08-3.48-2.08V10.84Z"/><path class="cls-2" d="M238.51,15.82l-.14,4.39h7.19v1.31h-7.28c0,3.84,0,10,.18,13.16s1.4,3.84,2.89,3.84a4.6,4.6,0,0,0,3.48-1.94l.72.54c-1,1.36-2.17,3.12-5.38,3.12S235,38.7,234.85,35c-.23-4.7,0-9.23,0-13.57H232v-.95a9,9,0,0,0,5.65-4.7Z"/><path class="cls-3" d="M274.74,30.68A4.27,4.27,0,1,0,279,34.94a4.27,4.27,0,0,0-4.26-4.26Zm0,7.32a3.06,3.06,0,1,1,3.06-3.06A3.06,3.06,0,0,1,274.74,38Zm0,0"/><path class="cls-3" d="M267.66,20.58a.6.6,0,0,0,.43-.18l3.6-3.6a4.26,4.26,0,1,0-.72-1l-3.73,3.73a.6.6,0,0,0,.43,1Zm7.07-9.81a3.06,3.06,0,1,1-3.06,3.06,3.06,3.06,0,0,1,3.06-3.06Zm0,0"/><path class="cls-3" d="M269.56,31.18,266,27.62a4.25,4.25,0,1,0-1,.66L268.7,32a.6.6,0,0,0,.85-.85Zm-9.39-6.79a3.06,3.06,0,1,1,3.06,3.06,3.06,3.06,0,0,1-3.06-3.06Zm0,0"/></svg>