<svg id="Layer_1" data-name="Layer 1" xmlns="http://www.w3.org/2000/svg" viewBox="0 0 216 144"><defs><style>.cls-1{fill:#8a8c8e;}.cls-2{fill:#231f20;}.cls-3{stroke:#231f20;stroke-miterlimit:10;stroke-width:1.25px;}</style></defs><title>NGinnever_Just_Will_It_LogoTagline</title><path class="cls-1" d="M12.22,113c.08,2.16,1.15,3.5,3.24,3.5,2.34,0,3.9-1.12,3.9-5.06V96.25a2.41,2.41,0,0,0-2.71-2.64v-.74l6.06-.52a64.24,64.24,0,0,0-.22,7v11.12c0,5.06-3.42,7-7.18,7-2.6,0-5-1.12-5-2.9,0-1.08.78-1.49,1.67-1.49ZM22.93,85.54a2.4,2.4,0,0,1-2.38,2.38,2.38,2.38,0,1,1,2.38-2.38Z"/><path class="cls-1" d="M34.12,92.34c0,3.53,0,7,0,10,0,3.46.71,5.32,3.2,5.32,3.09,0,4.95-3,4.95-7.18a52.5,52.5,0,0,0-.11-5.5C42,93.5,41,93.57,40,93.57h-.45v-.74l5.76-.48c0,.82-.07,4.09-.07,8.48,0,1,0,3.16.15,4.42s.67,2.19,2.53,1.9l.11.71-5.35,1-.45-3.35a5.79,5.79,0,0,1-5.62,3.46c-3.38,0-5.43-1.67-5.43-5.54,0-3.27,0-7.06-.15-8.52s-1.08-1.3-2-1.3h-.48v-.74Z"/><path class="cls-1" d="M53.49,103.46c.74,2.75,1.9,4.28,4.95,4.28,1.75,0,3.61-1,3.61-2.75,0-2.27-1.71-2.64-6.06-4.2-2-.74-3.31-1.86-3.31-4,0-2.75,2.45-4.8,6.17-4.8,2.86,0,5.13,1,5.13,2.75a1.68,1.68,0,0,1-1.71,1.49h-.33c-.07-2.34-1.3-3-3.53-3-1.49,0-3,1-3,2.49,0,1.93,1.3,2.16,5.88,3.9,1.78.67,3.57,1.53,3.57,4.17,0,3.09-2.86,5.21-7,5.21-3.5,0-6.1-1.49-6.1-3.61a1.74,1.74,0,0,1,1.67-1.86Z"/><path class="cls-1" d="M74.5,88.85l-.11,3.61H80.3v1.08h-6c0,3.16,0,8.18.15,10.82s1.15,3.16,2.38,3.16a3.78,3.78,0,0,0,2.86-1.6l.59.45a4.86,4.86,0,0,1-4.42,2.57c-2.71,0-4.24-1.26-4.39-4.28-.19-3.87,0-7.59,0-11.16H69.14v-.78a7.43,7.43,0,0,0,4.65-3.87Z"/><path class="cls-2" d="M92.72,84.76h9.33v.93h-.89c-1,0-1.6.45-1.6,1.26a1.9,1.9,0,0,0,.08.52l4.61,15,6-18.11h.71l6.62,18.15,3.83-14.73a3.45,3.45,0,0,0,.19-.93c0-1.19-.78-1.19-1.93-1.19h-.78v-.93h7.77v.93h-.71c-1.41,0-2.86.63-3.61,3.27l-5.65,19.78h-.41l-7-18.15-6.1,18.15h-.45L96.14,88.07c-.59-1.86-1.41-2.38-2.68-2.38h-.74Z"/><path class="cls-2" d="M136.22,92.34a53.34,53.34,0,0,0-.37,6.4c0,2.68.22,6.51.3,7.44.11,1.41,1.26,1.52,2.23,1.52h.37v.74H130v-.74h.56c1,0,2-.11,2.16-1.52s.22-3.12.26-5.21-.11-3.87-.22-5.32c-.15-1.79-1.3-2-2.75-2v-.74Zm.26-6.8a2.38,2.38,0,1,1-4.76,0,2.38,2.38,0,1,1,4.76,0Z"/><path class="cls-2" d="M148.75,83.16c-.26,2.31-.37,8.44-.37,13.16s.11,8.92.19,9.85c.11,1.41,1.26,1.52,2.23,1.52h.74v.74h-9.26v-.74H143c1,0,2-.11,2.16-1.52s.22-5.24.26-9.85-.08-8.81-.22-10.26-1.3-1.67-2.75-1.67v-.74Z"/><path class="cls-2" d="M161.73,83.16c-.26,2.31-.37,8.44-.37,13.16s.11,8.92.19,9.85c.11,1.41,1.26,1.52,2.23,1.52h.74v.74h-9.26v-.74H156c1,0,2-.11,2.16-1.52s.22-5.24.26-9.85-.08-8.81-.22-10.26-1.3-1.67-2.75-1.67v-.74Z"/><path class="cls-2" d="M188.91,84.76v.93c-2.27,0-2.75.45-2.86,1.71a76.54,76.54,0,0,0-.3,8.92c0,4.46.15,7.47.3,9.48.11,1.53.6,1.71,2.86,1.71v.93h-9.52v-.93c2.19,0,2.75-.19,2.86-1.71.15-2,.3-5,.3-9.48,0-4.2-.11-6.88-.3-8.92-.15-1.23-.67-1.71-2.86-1.71v-.93Z"/><path class="cls-2" d="M199.92,88.85l-.11,3.61h5.91v1.08h-6c0,3.16,0,8.18.15,10.82s1.15,3.16,2.38,3.16a3.78,3.78,0,0,0,2.86-1.6l.59.45a4.86,4.86,0,0,1-4.42,2.57c-2.71,0-4.24-1.26-4.39-4.28-.19-3.87,0-7.59,0-11.16h-2.38v-.78a7.43,7.43,0,0,0,4.65-3.87Z"/><path class="cls-2" d="M65.67,121.67h2.18v.22h-.21c-.23,0-.37.1-.37.29a.45.45,0,0,0,0,.12l1.08,3.51,1.4-4.23h.17l1.54,4.24.89-3.44a.81.81,0,0,0,0-.22c0-.28-.18-.28-.45-.28h-.18v-.22h1.81v.22h-.17c-.33,0-.67.15-.84.76l-1.32,4.62h-.1L69.53,123l-1.42,4.24H68l-1.54-4.83c-.14-.43-.33-.56-.62-.56h-.17Z"/><path class="cls-2" d="M80.9,121.67v.22c-.53,0-.64.1-.67.4a17.63,17.63,0,0,0-.07,2.08c0,1,0,1.75.07,2.21s.14.4.67.4v.22H78.68V127c.51,0,.64,0,.67-.4s.07-1.17.07-2.21,0-1.61-.07-2.08c0-.29-.16-.4-.67-.4v-.22Z"/><path class="cls-2" d="M88.7,121.67v.22c-.51,0-.65.1-.68.4a17,17,0,0,0-.09,2.08c0,1.14,0,1.58,0,2.08s.45.56,1.05.56h.22c.85,0,1.35-.24,1.58-1l.13-.41h.19L91,127.27c-.37,0-1-.07-1.54-.07h-3V127c.52,0,.64-.06.67-.42s.07-1,.07-2.2c0-1,0-1.61-.07-2.08,0-.29-.17-.46-.67-.46v-.16Z"/><path class="cls-2" d="M98.69,121.67v.22c-.51,0-.65.1-.68.4a17,17,0,0,0-.09,2.08c0,1.14,0,1.58,0,2.08s.45.56,1.05.56h.22c.85,0,1.35-.24,1.58-1l.13-.41h.19l-.13,1.62c-.37,0-1-.07-1.54-.07h-3V127c.52,0,.64-.06.67-.42s.07-1,.07-2.2c0-1,0-1.61-.07-2.08,0-.29-.17-.46-.67-.46v-.16Z"/><path class="cls-2" d="M120.38,121.67v.22h-.18c-.24,0-.43.17-.69.61L118.06,125l.05,1.48c0,.37.14.5.67.5v.22h-2.23V127c.5,0,.69-.12.7-.5l0-1.48-1.37-2.47c-.22-.39-.45-.64-.79-.64h-.19v-.22h2.16v.22h-.15c-.15,0-.31.05-.31.22a.86.86,0,0,0,.16.41l1.19,2.22,1.16-2a1.4,1.4,0,0,0,.27-.61.23.23,0,0,0-.26-.22h-.28v-.22Z"/><path class="cls-2" d="M130.92,124.45a2.91,2.91,0,0,1-5.83,0,2.91,2.91,0,0,1,5.83,0Zm-4.91,0c0,1.79.95,2.59,2,2.59s2-.8,2-2.6-.92-2.64-2-2.64S126,122.66,126,124.46Z"/><path class="cls-2" d="M141.86,121.67v.22c-.5,0-.75.22-.75.52v2.54c0,1.65-.77,2.37-2.24,2.37a2.07,2.07,0,0,1-2.23-2.37v-2.61c0-.27-.17-.44-.68-.44v-.22h2.22v.22H138c-.44,0-.57.2-.57.5,0,0,0,.94,0,2.56,0,1.22.4,2,1.59,2s1.86-.42,1.83-2V122.4c0-.3-.19-.52-.73-.52v-.22Z"/><path class="cls-2" d="M147.41,122.93a.52.52,0,0,1-.55-.55c0-.76.87-1.23,1.75-1.23,1.05,0,1.72.49,1.72,1.3s-.54,1.13-1,1.55a1.86,1.86,0,0,0-.7,1.53h-.2a3.16,3.16,0,0,1,.32-1.6,3.1,3.1,0,0,0,.63-1.48c0-.62-.33-1-.85-1-.7,0-.95.74-1,1.5Zm1.68,3.7a.58.58,0,1,1-.58-.58A.55.55,0,0,1,149.09,126.63Z"/><path class="cls-3" d="M118.83,56.42a8,8,0,1,0,8,8,8,8,0,0,0-8-8Zm0,13.78a5.75,5.75,0,1,1,5.75-5.75,5.76,5.76,0,0,1-5.75,5.75Zm0,0"/><path class="cls-3" d="M105.52,37.42a1.13,1.13,0,0,0,.8-.33l6.77-6.77a8,8,0,1,0-1.36-1.86l-7,7a1.13,1.13,0,0,0,.8,1.94ZM118.83,19a5.75,5.75,0,1,1-5.75,5.75A5.76,5.76,0,0,1,118.83,19Zm0,0"/><path class="cls-3" d="M109.09,57.35l-6.69-6.69a8,8,0,1,0-2,1.25l7,7a1.13,1.13,0,0,0,1.6-1.6ZM91.42,44.58a5.75,5.75,0,1,1,5.75,5.75,5.76,5.76,0,0,1-5.75-5.75Zm0,0"/></svg>