<svg id="Layer_1" data-name="Layer 1" xmlns="http://www.w3.org/2000/svg" viewBox="0 0 195.28 118.12"><defs><style>.cls-1{fill:#8a8c8e;}.cls-2{fill:#231f20;}.cls-3{stroke:#231f20;stroke-miterlimit:10;stroke-width:1.32px;}</style></defs><title>NGinnever_Just_Will_It_LogoTagline</title><path class="cls-1" d="M12.41,115.51c.08,2.29,1.22,3.71,3.44,3.71,2.49,0,4.15-1.19,4.15-5.37V97.75a2.56,2.56,0,0,0-2.88-2.8v-.79l6.44-.55a68,68,0,0,0-.24,7.38v11.81c0,5.37-3.63,7.38-7.62,7.38-2.76,0-5.33-1.18-5.33-3.08,0-1.15.83-1.58,1.78-1.58ZM23.79,86.37a2.55,2.55,0,0,1-2.53,2.53,2.52,2.52,0,0,1-2.53-2.53,2.53,2.53,0,0,1,5.05,0Z" transform="translate(-10.36 -12.61)"/><path class="cls-1" d="M35.67,93.6c0,3.75,0,7.46,0,10.58,0,3.67.75,5.65,3.4,5.65,3.28,0,5.25-3.24,5.25-7.62a55.57,55.57,0,0,0-.12-5.84C44,94.82,43,94.9,41.95,94.9h-.47v-.79l6.12-.51c0,.87-.08,4.34-.08,9,0,1,0,3.36.16,4.7.16,1.5.71,2.33,2.69,2l.12.75-5.69,1-.47-3.55a6.15,6.15,0,0,1-6,3.67c-3.59,0-5.77-1.78-5.77-5.88,0-3.48,0-7.5-.16-9s-1.15-1.38-2.17-1.38h-.51v-.79Z" transform="translate(-10.36 -12.61)"/><path class="cls-1" d="M56.24,105.41c.79,2.92,2,4.54,5.25,4.54,1.86,0,3.83-1.11,3.83-2.92,0-2.41-1.82-2.8-6.44-4.46-2.17-.79-3.51-2-3.51-4.26,0-2.92,2.61-5.09,6.56-5.09,3,0,5.45,1,5.45,2.92a1.78,1.78,0,0,1-1.82,1.58H65.2c-.08-2.49-1.38-3.24-3.75-3.24-1.58,0-3.2,1.07-3.2,2.65,0,2.05,1.38,2.29,6.24,4.15,1.9.71,3.79,1.62,3.79,4.42,0,3.28-3,5.53-7.42,5.53-3.71,0-6.48-1.58-6.48-3.83a1.85,1.85,0,0,1,1.78-2Z" transform="translate(-10.36 -12.61)"/><path class="cls-1" d="M78.55,89.89l-.12,3.83h6.28v1.15H78.35c0,3.36,0,8.69.16,11.49s1.22,3.36,2.53,3.36a4,4,0,0,0,3-1.7l.63.47a5.16,5.16,0,0,1-4.7,2.73c-2.88,0-4.5-1.34-4.66-4.54-.2-4.11,0-8.06,0-11.85H72.86V94a7.89,7.89,0,0,0,4.94-4.11Z" transform="translate(-10.36 -12.61)"/><path class="cls-2" d="M113.41,93.4l5.21,12.24,2.53-8.13a6.29,6.29,0,0,0,.35-1.94c0-.67-1-1.07-2.29-1.07v-.79h7v.79h-.59c-1.07,0-1.94.67-2.57,2.45L118,111h-.43l-5.41-12.4L107.21,111h-.67l-5.17-14c-.55-1.54-1.34-2.53-2.37-2.53h-.71v-.79h8.1v.79c-1.66,0-2.09.55-2.09,1.07a7.52,7.52,0,0,0,.67,2.21l2.92,7.86,4.78-12.24Z" transform="translate(-10.36 -12.61)"/><path class="cls-2" d="M136.47,93.6a56.37,56.37,0,0,0-.4,6.79c0,2.84.24,6.91.32,7.9.12,1.5,1.34,1.62,2.37,1.62h.39v.79h-9.24v-.79h.59c1,0,2.09-.12,2.29-1.62s.24-3.32.28-5.53-.12-4.11-.24-5.65c-.16-1.89-1.38-2.17-2.92-2.17v-.79Zm.28-7.23a2.55,2.55,0,0,1-2.53,2.53,2.52,2.52,0,0,1-2.53-2.53,2.49,2.49,0,0,1,2.53-2.53A2.52,2.52,0,0,1,136.74,86.37Z" transform="translate(-10.36 -12.61)"/><path class="cls-2" d="M149.77,83.84c-.28,2.45-.39,9-.39,14s.12,9.48.2,10.46c.12,1.5,1.34,1.62,2.37,1.62h.79v.79H142.9v-.79h.79c1,0,2.09-.12,2.29-1.62s.24-5.57.28-10.46-.08-9.36-.24-10.9-1.38-1.78-2.92-1.78v-.79Z" transform="translate(-10.36 -12.61)"/><path class="cls-2" d="M163.55,83.84c-.28,2.45-.39,9-.39,14s.12,9.48.2,10.46c.12,1.5,1.34,1.62,2.37,1.62h.79v.79h-9.83v-.79h.79c1,0,2.09-.12,2.29-1.62s.24-5.57.28-10.46-.08-9.36-.24-10.9-1.38-1.78-2.92-1.78v-.79Z" transform="translate(-10.36 -12.61)"/><path class="cls-2" d="M187.08,93.6a56.37,56.37,0,0,0-.4,6.79c0,2.84.24,6.91.32,7.9.12,1.5,1.34,1.62,2.37,1.62h.39v.79h-9.24v-.79h.59c1,0,2.09-.12,2.29-1.62s.24-3.32.28-5.53-.12-4.11-.24-5.65c-.16-1.89-1.38-2.17-2.92-2.17v-.79Zm.28-7.23a2.55,2.55,0,0,1-2.53,2.53,2.52,2.52,0,0,1-2.53-2.53,2.49,2.49,0,0,1,2.53-2.53A2.52,2.52,0,0,1,187.36,86.37Z" transform="translate(-10.36 -12.61)"/><path class="cls-2" d="M199.48,89.89l-.12,3.83h6.28v1.15h-6.36c0,3.36,0,8.69.16,11.49s1.22,3.36,2.53,3.36a4,4,0,0,0,3-1.7l.63.47a5.16,5.16,0,0,1-4.7,2.73c-2.88,0-4.5-1.34-4.66-4.54-.2-4.11,0-8.06,0-11.85h-2.53V94a7.89,7.89,0,0,0,4.94-4.11Z" transform="translate(-10.36 -12.61)"/><path class="cls-2" d="M62.39,124.74H64.7V125h-.22c-.25,0-.4.11-.4.31a.49.49,0,0,0,0,.13l1.14,3.72,1.48-4.49h.17l1.64,4.5.95-3.65a.85.85,0,0,0,0-.23c0-.29-.19-.29-.48-.29h-.19v-.23h1.93V125h-.18c-.35,0-.71.16-.89.81l-1.4,4.9h-.1l-1.73-4.5L65,130.68h-.11l-1.63-5.13c-.15-.46-.35-.59-.66-.59h-.18Z" transform="translate(-10.36 -12.61)"/><path class="cls-2" d="M78.56,124.74V125c-.56,0-.68.11-.71.42a19,19,0,0,0-.07,2.21c0,1.11,0,1.85.07,2.35s.15.42.71.42v.23H76.2v-.23c.54,0,.68,0,.71-.42s.07-1.24.07-2.35,0-1.71-.07-2.21c0-.3-.17-.42-.71-.42v-.23Z" transform="translate(-10.36 -12.61)"/><path class="cls-2" d="M86.84,124.74V125c-.54,0-.69.11-.72.42A17.86,17.86,0,0,0,86,127.6c0,1.21,0,1.68,0,2.21s.48.6,1.12.6h.23c.9,0,1.44-.26,1.68-1l.14-.43h.2l-.14,1.71c-.4,0-1.07-.07-1.64-.07H84.45v-.23c.55,0,.68-.06.71-.44s.07-1.07.07-2.33c0-1,0-1.71-.07-2.21,0-.3-.18-.49-.71-.49v-.17Z" transform="translate(-10.36 -12.61)"/><path class="cls-2" d="M97.44,124.74V125c-.54,0-.69.11-.72.42a17.86,17.86,0,0,0-.09,2.21c0,1.21,0,1.68,0,2.21s.48.6,1.12.6H98c.9,0,1.44-.26,1.68-1l.14-.43h.2l-.14,1.71c-.4,0-1.07-.07-1.64-.07H95.06v-.23c.55,0,.68-.06.71-.44s.07-1.07.07-2.33c0-1,0-1.71-.07-2.21,0-.3-.18-.49-.71-.49v-.17Z" transform="translate(-10.36 -12.61)"/><path class="cls-2" d="M120.48,124.74V125h-.19c-.26,0-.46.18-.73.65L118,128.28l.06,1.58c0,.4.15.53.71.53v.23h-2.37v-.23c.53,0,.74-.13.75-.53l0-1.58-1.46-2.63c-.23-.42-.48-.68-.84-.68h-.2v-.23H117V125h-.16c-.16,0-.33.06-.33.23a.91.91,0,0,0,.17.43l1.26,2.36,1.23-2.15a1.48,1.48,0,0,0,.29-.65.25.25,0,0,0-.28-.23h-.29v-.23Z" transform="translate(-10.36 -12.61)"/><path class="cls-2" d="M131.67,127.7a3.09,3.09,0,0,1-6.18,0,3.09,3.09,0,0,1,6.18,0Zm-5.21,0c0,1.9,1,2.75,2.12,2.75s2.09-.85,2.09-2.76-1-2.8-2.09-2.8S126.46,125.79,126.46,127.71Z" transform="translate(-10.36 -12.61)"/><path class="cls-2" d="M143.29,124.74V125c-.54,0-.79.23-.79.55v2.69c0,1.75-.82,2.52-2.38,2.52a2.2,2.2,0,0,1-2.37-2.52v-2.77c0-.29-.18-.47-.72-.47v-.23h2.36V125h-.17c-.47,0-.61.21-.61.53,0,0,0,1,0,2.72,0,1.3.42,2.18,1.69,2.18s2-.44,1.95-2.18v-2.69c0-.32-.2-.55-.77-.55v-.23Z" transform="translate(-10.36 -12.61)"/><path class="cls-2" d="M149.48,124.56a.73.73,0,0,1-.78-.78c0-1.08,1.24-1.74,2.48-1.74,1.49,0,2.44.7,2.44,1.84,0,1-.76,1.61-1.45,2.2a2.63,2.63,0,0,0-1,2.17h-.29a4.49,4.49,0,0,1,.45-2.27,4.37,4.37,0,0,0,.9-2.09c0-.88-.46-1.46-1.2-1.46-1,0-1.34,1.05-1.44,2.12Zm2.38,5.24A.82.82,0,1,1,151,129,.77.77,0,0,1,151.86,129.8Z" transform="translate(-10.36 -12.61)"/><path class="cls-3" d="M119.5,55.45A8.52,8.52,0,1,0,128,64a8.53,8.53,0,0,0-8.52-8.52Zm0,14.63A6.11,6.11,0,1,1,125.61,64a6.12,6.12,0,0,1-6.11,6.11Zm0,0" transform="translate(-10.36 -12.61)"/><path class="cls-3" d="M105.37,35.28a1.2,1.2,0,0,0,.85-.35l7.19-7.19a8.51,8.51,0,1,0-1.44-2l-7.45,7.45a1.21,1.21,0,0,0,.85,2.06Zm14.13-19.6a6.11,6.11,0,1,1-6.11,6.11,6.12,6.12,0,0,1,6.11-6.11Zm0,0" transform="translate(-10.36 -12.61)"/><path class="cls-3" d="M109.15,56.44l-7.1-7.1A8.5,8.5,0,1,0,100,50.66l7.48,7.48a1.2,1.2,0,0,0,1.7-1.7ZM90.39,42.88A6.11,6.11,0,1,1,96.5,49a6.12,6.12,0,0,1-6.11-6.11Zm0,0" transform="translate(-10.36 -12.61)"/></svg>