<svg id="Layer_1" data-name="Layer 1" xmlns="http://www.w3.org/2000/svg" viewBox="0 0 270.35 44.04"><defs><style>.cls-1{fill:#8a8c8e;}.cls-2{fill:#231f20;}.cls-3{stroke:#231f20;stroke-miterlimit:10;stroke-width:0.7px;}</style></defs><title>NGinnever_Just_Will_It_Logo</title><path class="cls-1" d="M11.49,45c.1,2.78,1.48,4.5,4.16,4.5,3,0,5-1.44,5-6.51V23.47c0-2.06-1.1-3.4-3.49-3.4v-1l7.8-.67a82.56,82.56,0,0,0-.29,9V41.7c0,6.51-4.4,9-9.24,9C12.11,50.65,9,49.22,9,46.92,9,45.53,10,45,11.15,45ZM25.27,9.68a3.08,3.08,0,0,1-3.06,3.06,3.06,3.06,0,1,1,3.06-3.06Z" transform="translate(-9 -6.62)"/><path class="cls-1" d="M39.68,18.44c0,4.55,0,9,0,12.83,0,4.45.91,6.85,4.12,6.85,4,0,6.37-3.93,6.37-9.24a67.48,67.48,0,0,0-.14-7.08C49.78,19.92,48.54,20,47.29,20h-.57v-1l7.42-.62c0,1.05-.1,5.27-.1,10.91,0,1.24,0,4.07.19,5.7.19,1.82.86,2.82,3.25,2.44l.14.91-6.89,1.24-.57-4.31a7.46,7.46,0,0,1-7.23,4.45c-4.36,0-7-2.15-7-7.13,0-4.21,0-9.09-.19-11S34.37,20,33.13,20H32.5v-1Z" transform="translate(-9 -6.62)"/><path class="cls-1" d="M64.62,32.75c1,3.54,2.44,5.5,6.37,5.5,2.25,0,4.64-1.34,4.64-3.54,0-2.92-2.2-3.4-7.8-5.41-2.63-1-4.26-2.39-4.26-5.17,0-3.54,3.16-6.17,7.95-6.17,3.69,0,6.61,1.24,6.61,3.54a2.16,2.16,0,0,1-2.2,1.92h-.43c-.1-3-1.68-3.93-4.55-3.93-1.91,0-3.88,1.29-3.88,3.21,0,2.49,1.68,2.78,7.56,5,2.3.86,4.6,2,4.6,5.36,0,4-3.69,6.7-9,6.7-4.5,0-7.85-1.91-7.85-4.64a2.24,2.24,0,0,1,2.15-2.39Z" transform="translate(-9 -6.62)"/><path class="cls-1" d="M91.67,13.94l-.14,4.64h7.61V20H91.43c0,4.07,0,10.53.19,13.93S93.11,38,94.69,38a4.87,4.87,0,0,0,3.69-2.06l.77.57c-1,1.44-2.3,3.3-5.7,3.3s-5.46-1.63-5.65-5.5c-.24-5,0-9.76,0-14.36H84.78v-1a9.57,9.57,0,0,0,6-5Z" transform="translate(-9 -6.62)"/><path class="cls-2" d="M133.94,18.2,140.26,33l3.06-9.86a7.6,7.6,0,0,0,.43-2.35c0-.81-1.2-1.29-2.78-1.29v-1h8.43v1h-.72c-1.29,0-2.35.81-3.11,3l-6.08,17H139l-6.56-15-6,15h-.81L119.34,22.6c-.67-1.87-1.63-3.06-2.87-3.06h-.86v-1h9.81v1c-2,0-2.54.67-2.54,1.29a9.12,9.12,0,0,0,.81,2.68L127.24,33,133,18.2Z" transform="translate(-9 -6.62)"/><path class="cls-2" d="M161.9,18.44a68.59,68.59,0,0,0-.48,8.23c0,3.45.29,8.38.38,9.57.14,1.82,1.63,2,2.87,2h.48v1h-11.2v-1h.72c1.24,0,2.54-.14,2.78-2s.29-4,.33-6.7-.14-5-.29-6.85c-.19-2.3-1.68-2.63-3.54-2.63v-1Zm.33-8.76a3.06,3.06,0,0,1-6.13,0,3.06,3.06,0,0,1,6.13,0Z" transform="translate(-9 -6.62)"/><path class="cls-2" d="M178,6.62c-.33,3-.48,10.87-.48,16.94s.14,11.49.24,12.68c.14,1.82,1.63,2,2.87,2h1v1H169.7v-1h1c1.24,0,2.54-.14,2.78-2s.29-6.75.33-12.68-.1-11.34-.29-13.21S171.8,8.2,169.94,8.2v-1Z" transform="translate(-9 -6.62)"/><path class="cls-2" d="M194.73,6.62c-.33,3-.48,10.87-.48,16.94s.14,11.49.24,12.68c.14,1.82,1.63,2,2.87,2h1v1H186.41v-1h1c1.24,0,2.54-.14,2.78-2s.29-6.75.33-12.68-.1-11.34-.29-13.21-1.68-2.15-3.54-2.15v-1Z" transform="translate(-9 -6.62)"/><path class="cls-2" d="M223.27,18.44a68.59,68.59,0,0,0-.48,8.23c0,3.45.29,8.38.38,9.57.14,1.82,1.63,2,2.87,2h.48v1h-11.2v-1H216c1.24,0,2.54-.14,2.78-2s.29-4,.33-6.7-.14-5-.29-6.85c-.19-2.3-1.68-2.63-3.54-2.63v-1Zm.33-8.76a3.06,3.06,0,1,1-6.13,0,3.06,3.06,0,1,1,6.13,0Z" transform="translate(-9 -6.62)"/><path class="cls-2" d="M238.3,13.94l-.14,4.64h7.61V20h-7.71c0,4.07,0,10.53.19,13.93S239.73,38,241.31,38A4.87,4.87,0,0,0,245,35.91l.77.57c-1,1.44-2.3,3.3-5.7,3.3s-5.46-1.63-5.65-5.5c-.24-5,0-9.76,0-14.36H231.4v-1a9.57,9.57,0,0,0,6-5Z" transform="translate(-9 -6.62)"/><path class="cls-3" d="M274.49,29.67A4.51,4.51,0,1,0,279,34.18a4.52,4.52,0,0,0-4.51-4.51Zm0,7.75a3.24,3.24,0,1,1,3.24-3.24,3.24,3.24,0,0,1-3.24,3.24Zm0,0" transform="translate(-9 -6.62)"/><path class="cls-3" d="M267,19a.64.64,0,0,0,.45-.19L271.26,15a4.51,4.51,0,1,0-.76-1l-3.95,3.95A.64.64,0,0,0,267,19ZM274.49,8.6a3.24,3.24,0,1,1-3.24,3.24,3.24,3.24,0,0,1,3.24-3.24Zm0,0" transform="translate(-9 -6.62)"/><path class="cls-3" d="M269,30.2l-3.76-3.76a4.5,4.5,0,1,0-1.1.7l4,4a.64.64,0,0,0,.9-.9ZM259.06,23a3.24,3.24,0,1,1,3.24,3.24A3.24,3.24,0,0,1,259.06,23Zm0,0" transform="translate(-9 -6.62)"/></svg>