<svg id="Layer_1" data-name="Layer 1" xmlns="http://www.w3.org/2000/svg" viewBox="0 0 216 144"><defs><style>.cls-1{font-size:39.48px;fill:#bcbec0;letter-spacing:0.05em;}.cls-1,.cls-6,.cls-7,.cls-8{font-family:Tryst-Regular, Tryst;}.cls-2,.cls-3,.cls-4,.cls-5,.cls-6,.cls-7,.cls-8{fill:#231f20;}.cls-2{letter-spacing:0.03em;}.cls-4{letter-spacing:0.02em;}.cls-5{letter-spacing:0.05em;}.cls-6,.cls-7,.cls-8{font-size:13.16px;}.cls-6{letter-spacing:0.5em;}.cls-7{letter-spacing:0.5em;}.cls-8{letter-spacing:0.5em;}.cls-9{stroke:#231f20;stroke-miterlimit:10;stroke-width:1.32px;}</style></defs><title>NGinnever_Just_Will_It_LogoTagline</title><text class="cls-1" transform="translate(12.75 107.97)">just<tspan class="cls-2" x="73.32" y="0"> </tspan><tspan class="cls-3" x="83.39" y="0">will</tspan><tspan class="cls-4" x="155.36" y="0"> </tspan><tspan class="cls-5" x="165.43" y="0">it</tspan></text><text class="cls-6" transform="translate(58.86 127.89) scale(0.7)">WILL</text><text class="cls-7" transform="translate(101.58 127.89)"> </text><text class="cls-6" transform="translate(111.18 127.89) scale(0.7)">YOU</text><text class="cls-8" transform="translate(144.86 127.89)">?</text><path class="cls-9" d="M119.5,52.73A8.52,8.52,0,1,0,128,61.25a8.53,8.53,0,0,0-8.52-8.52Zm0,14.63a6.11,6.11,0,1,1,6.11-6.11,6.12,6.12,0,0,1-6.11,6.11Zm0,0"/><path class="cls-9" d="M105.37,32.56a1.2,1.2,0,0,0,.85-.35L113.41,25A8.51,8.51,0,1,0,112,23l-7.45,7.45a1.21,1.21,0,0,0,.85,2.06ZM119.5,13a6.11,6.11,0,1,1-6.11,6.11A6.12,6.12,0,0,1,119.5,13Zm0,0"/><path class="cls-9" d="M109.15,53.72l-7.1-7.1A8.5,8.5,0,1,0,100,47.94l7.48,7.48a1.2,1.2,0,0,0,1.7-1.7ZM90.39,40.16a6.11,6.11,0,1,1,6.11,6.11,6.12,6.12,0,0,1-6.11-6.11Zm0,0"/></svg>